HIERARCHY
ROOT Hips
{
	OFFSET	0.00	0.00	0.00
	CHANNELS 6 Xposition Yposition Zposition Zrotation Xrotation Yrotation
	JOINT LeftUpLeg
	{
		OFFSET	 0.126116	-0.014019	-0.065224
		CHANNELS 3 Zrotation Xrotation Yrotation
		JOINT LeftLeg
		{
			OFFSET	 0.000000	 0.000000	 0.569914
			CHANNELS 3 Zrotation Xrotation Yrotation
			JOINT LeftFoot
			{
				OFFSET	 0.000000	 0.000000	 0.544423
				CHANNELS 3 Zrotation Xrotation Yrotation
				JOINT LeftToeBase
				{
					OFFSET	 0.000000	 0.000000	 0.207117
					CHANNELS 3 Zrotation Xrotation Yrotation
					End Site
					{
						OFFSET	 0.000000	 0.000000	 0.207117
					}
				}
			}
		}
	}
	JOINT RightUpLeg
	{
		OFFSET	-0.124023	-0.008373	-0.065224
		CHANNELS 3 Zrotation Xrotation Yrotation
		JOINT RightLeg
		{
			OFFSET	 0.000000	 0.000000	 0.570047
			CHANNELS 3 Zrotation Xrotation Yrotation
			JOINT RightFoot
			{
				OFFSET	 0.000000	 0.000000	 0.544354
				CHANNELS 3 Zrotation Xrotation Yrotation
				JOINT RightToeBase
				{
					OFFSET	 0.000000	 0.000000	 0.207540
					CHANNELS 3 Zrotation Xrotation Yrotation
					End Site
					{
						OFFSET	 0.000000	 0.000000	 0.207540
					}
				}
			}
		}
	}
	JOINT Spine
	{
		OFFSET	 0.000184	-0.007763	 0.117403
		CHANNELS 3 Zrotation Xrotation Yrotation
		JOINT Spine1
		{
			OFFSET	 0.000000	 0.000000	 0.137269
			CHANNELS 3 Zrotation Xrotation Yrotation
			JOINT Spine2
			{
				OFFSET	 0.000000	 0.000000	 0.156879
				CHANNELS 3 Zrotation Xrotation Yrotation
				JOINT LeftShoulder
				{
					OFFSET	 0.080501	-0.002496	 0.160144
					CHANNELS 3 Zrotation Xrotation Yrotation
					JOINT LeftArm
					{
						OFFSET	 0.000000	 0.000000	 0.164363
						CHANNELS 3 Zrotation Xrotation Yrotation
						JOINT LeftForeArm
						{
							OFFSET	 0.000000	 0.000000	 0.364576
							CHANNELS 3 Zrotation Xrotation Yrotation
							JOINT LeftHand
							{
								OFFSET	 0.000000	 0.000000	 0.360812
								CHANNELS 3 Zrotation Xrotation Yrotation
								JOINT LeftHandIndex1
								{
									OFFSET	 0.000000	 0.000000	 0.086006
									CHANNELS 3 Zrotation Xrotation Yrotation
									JOINT LeftHandIndex2
									{
										OFFSET	 0.000000	 0.000000	 0.047237
										CHANNELS 3 Zrotation Xrotation Yrotation
										JOINT LeftHandIndex3
										{
											OFFSET	-0.004284	-0.000551	 0.038165
											CHANNELS 3 Zrotation Xrotation Yrotation
											End Site
											{
												OFFSET	-0.004284	-0.000551	 0.038165
											}
										}
									}
								}
							}
						}
					}
				}
				JOINT Neck
				{
					OFFSET	 0.000000	 0.000000	 0.176489
					CHANNELS 3 Zrotation Xrotation Yrotation
					JOINT Head
					{
						OFFSET	 0.000000	-0.001747	 0.077940
						CHANNELS 3 Zrotation Xrotation Yrotation
						End Site
						{
							OFFSET	 0.000000	-0.001747	 0.077940
						}
					}
				}
				JOINT RightShoulder
				{
					OFFSET	-0.080363	 0.000306	 0.159706
					CHANNELS 3 Zrotation Xrotation Yrotation
					JOINT RightArm
					{
						OFFSET	 0.000000	 0.000000	 0.164196
						CHANNELS 3 Zrotation Xrotation Yrotation
						JOINT RightForeArm
						{
							OFFSET	 0.000000	 0.000000	 0.365611
							CHANNELS 3 Zrotation Xrotation Yrotation
							JOINT RightHand
							{
								OFFSET	 0.000000	 0.000000	 0.360648
								CHANNELS 3 Zrotation Xrotation Yrotation
								JOINT RightHandIndex1
								{
									OFFSET	 0.000000	 0.000000	 0.069977
									CHANNELS 3 Zrotation Xrotation Yrotation
									JOINT RightHandIndex2
									{
										OFFSET	 0.000000	 0.000000	 0.052305
										CHANNELS 3 Zrotation Xrotation Yrotation
										JOINT RightHandIndex3
										{
											OFFSET	 0.009002	-0.000782	 0.042196
											CHANNELS 3 Zrotation Xrotation Yrotation
											End Site
											{
												OFFSET	 0.009002	-0.000782	 0.042196
											}
										}
									}
								}
							}
						}
					}
				}
			}
		}
	}
}
MOTION
Frames:    12
Frame Time: 0.03333334
-0.727359	-0.006028	 1.272048	-176.835000	-6.419459	 1.046402	-16.506010	 3.780497	-175.665100	-6.488293	-12.636920	-1.750374	 21.180510	 69.620390	-31.254550	-2.385833	 28.452760	 0.000004	 18.703400	 5.010190	 172.810300	 3.667322	-9.369079	 0.633853	-18.741560	 66.828090	 25.179930	 2.384659	 28.388700	-0.000001	-9.153988	 7.064490	-1.890568	-4.017566	 10.763680	 0.583534	 9.036841	-8.001699	 4.778145	-91.776120	 78.527350	 180.000000	-37.132960	 5.486113	 7.793890	-15.724200	-2.959398	-47.942510	-3.215734	-36.100400	-2.794545	-4.130354	 21.526190	 0.991307	-5.167926	 0.731697	 3.519349	-1.378229	 35.397820	-2.634230	-9.425199	 1.567410	 4.620747	-2.834982	-18.882100	-5.047405	 89.782120	 78.203850	 180.000000	 0.269031	-1.769497	-12.042120	 9.674048	-2.608308	 49.536170	 47.778190	 47.164550	 26.383170	 5.716295	 19.173350	-3.684826	 5.027458	 0.246833	-9.377971	-2.350882	 35.473990	 5.254307
-0.727377	-0.006038	 1.271880	-176.781500	-6.392772	 1.074442	-16.578200	 3.449484	-175.706800	-6.443579	-13.469720	-1.852975	 21.340320	 70.201930	-31.476990	-2.385833	 28.452760	 0.000004	 18.757950	 4.870022	 172.739000	 3.611579	-9.855075	 0.656825	-18.871260	 67.258860	 25.341750	 2.384659	 28.388700	-0.000001	-9.381416	 7.029177	-1.953864	-4.162325	 10.578660	 0.552981	 9.068605	-7.872036	 4.805473	-91.776180	 78.527400	-180.000000	-36.395770	 7.186545	 10.569690	-15.834270	-3.363667	-52.725790	-3.177514	-36.042870	-2.821523	-4.130354	 21.526190	 0.991307	-5.167926	 0.731697	 3.519349	-1.378229	 35.397820	-2.634230	-9.392397	 1.535478	 4.706086	-2.799325	-18.741270	-5.229409	 89.782070	 78.203830	-180.000000	 0.439450	-0.336264	-13.324110	 9.879191	-2.769373	 53.898980	 48.200820	 44.741300	 25.842760	 5.716295	 19.173350	-3.684826	 5.027458	 0.246833	-9.377971	-2.350882	 35.473990	 5.254307
-0.727404	-0.006055	 1.271592	-176.710000	-6.347052	 1.116244	-16.673080	 2.956587	-175.777100	-6.389050	-14.745190	-2.010456	 21.639690	 71.100200	-31.861770	-2.385833	 28.452760	 0.000004	 18.824630	 4.659184	 172.629400	 3.536507	-10.627770	 0.693840	-19.163750	 67.938400	 25.679230	 2.384659	 28.388700	-0.000001	-9.738834	 6.962692	-2.045651	-4.399494	 10.280870	 0.476264	 9.111491	-7.660616	 4.860655	-91.776170	 78.527420	 180.000000	-35.272500	 10.033200	 14.727370	-16.096150	-3.937328	-59.730160	-3.128859	-35.963230	-2.855971	-4.130354	 21.526190	 0.991307	-5.167926	 0.731697	 3.519349	-1.378229	 35.397820	-2.634230	-9.347292	 1.491810	 4.823361	-2.749937	-18.548690	-5.480119	 89.782140	 78.203870	 180.000000	 0.593593	 2.077753	-15.066140	 10.205680	-2.979888	 60.402960	 48.296670	 40.982100	 25.149990	 5.716295	 19.173350	-3.684826	 5.027458	 0.246833	-9.377971	-2.350882	 35.473990	 5.254307
-0.727506	-0.006083	 1.270914	-176.605000	-6.225555	 1.081026	-16.585780	 2.095850	-175.875800	-6.462017	-17.091360	-2.342978	 22.503240	 72.850360	-32.720310	-2.385833	 28.452760	 0.000004	 18.800440	 4.142259	 172.539400	 3.536061	-12.617360	 0.821681	-20.931260	 69.420240	 27.493650	 2.384659	 28.388700	-0.000001	-10.501820	 6.749597	-2.019482	-4.917064	 9.565998	 0.061323	 9.148022	-7.060030	 5.091839	-91.776210	 78.527400	-180.000000	-33.296470	 17.056150	 22.858190	-16.907400	-4.808299	-72.828520	-3.163705	-35.970210	-2.900859	-4.130354	 21.526190	 0.991307	-5.167926	 0.731697	 3.519349	-1.378229	 35.397820	-2.634230	-9.273260	 1.394540	 4.872679	-2.684412	-18.269200	-5.634699	 89.782100	 78.203850	 180.000000	 0.467976	 8.068407	-17.671380	 10.887100	-3.300342	 72.974730	 47.183160	 34.404660	 23.937520	 5.716295	 19.173350	-3.684826	 5.027458	 0.246833	-9.377971	-2.350882	 35.473990	 5.254307
-0.727696	-0.006109	 1.269475	-176.537300	-5.899039	 0.908047	-16.147680	 0.755417	-176.070300	-6.755361	-20.967060	-2.958720	 24.036500	 75.852960	-34.069760	-2.385833	 28.452760	 0.000004	 18.800750	 3.419295	 172.470100	 3.562900	-16.007260	 1.044688	-25.792440	 71.973400	 32.481660	 2.384659	 28.388700	-0.000001	-11.989820	 6.188008	-1.721868	-6.001961	 8.034337	-1.217954	 9.206529	-5.618426	 5.757033	-91.776190	 78.527400	-180.000000	-28.386640	 33.552590	 33.903500	-18.331890	-5.522760	-89.384900	-3.381526	-36.128170	-2.946294	-4.130354	 21.526190	 0.991307	-5.167926	 0.731697	 3.519349	-1.378229	 35.397820	-2.634230	-9.064949	 1.088384	 4.725035	-2.531065	-17.719730	-5.348264	 89.782160	 78.203850	 179.999900	-2.191951	 22.534540	-17.795860	 11.934020	-3.645271	 90.581210	 38.409490	 24.099470	 23.322530	 5.716295	 19.173350	-3.684826	 5.027458	 0.246833	-9.377971	-2.350882	 35.473990	 5.254307
-0.727843	-0.006135	 1.267147	-176.635000	-5.261665	 0.962545	-15.526050	-0.903723	-176.781400	-7.208418	-26.437210	-3.884735	 29.010930	 80.610540	-38.803600	-2.385833	 28.452760	 0.000004	 19.020540	 3.221316	 172.033200	 3.412318	-19.208090	 1.196603	-33.562930	 74.660480	 40.516850	 2.384659	 28.388700	-0.000001	-14.356360	 5.434842	-1.684013	-7.931769	 5.266587	-3.716443	 9.297307	-3.065763	 7.115797	-91.776180	 78.527400	-180.000000	-10.994370	 62.743660	 25.893790	-18.167940	-5.919894	-87.836780	-3.575264	-36.267860	-3.007602	-4.130354	 21.526190	 0.991307	-5.167926	 0.731697	 3.519349	-1.378229	 35.397820	-2.634230	-8.661850	 0.653041	 4.594026	-2.217418	-16.652090	-5.185407	 89.782070	 78.203870	-180.000000	-20.867850	 48.900140	 1.073731	 12.540450	-4.683902	 97.830190	 11.025630	 13.026600	 28.281230	 5.716295	 19.173350	-3.684826	 5.027458	 0.246833	-9.377971	-2.350882	 35.473990	 5.254307
-0.727912	-0.006228	 1.265750	-176.719100	-4.664334	 1.315002	-15.202160	-1.915528	-177.641100	-7.445433	-29.880230	-4.465444	 38.420020	 83.822640	-48.169510	-2.385833	 28.452760	 0.000004	 19.270170	 3.447730	 171.475200	 3.290463	-20.170370	 1.211936	-37.738590	 75.822980	 44.768610	 2.384659	 28.388700	-0.000001	-16.062240	 5.171089	-2.104090	-9.366461	 2.972842	-5.728772	 9.332848	-1.133786	 8.239233	-91.776220	 78.527420	-180.000000	 16.498740	 74.148130	-11.231470	-15.598930	-5.578314	-63.355670	-3.501777	-36.335270	-3.048227	-4.130354	 21.526190	 0.991307	-5.167926	 0.731697	 3.519349	-1.378229	 35.397820	-2.634230	-8.288170	 0.420150	 4.492628	-1.943390	-15.747220	-5.358008	 89.782100	 78.203870	 180.000000	-50.411510	 57.270420	 34.227540	 11.558340	-5.835141	 86.672520	-7.303309	 4.390855	 37.040800	 5.716295	 19.173350	-3.684826	 5.027458	 0.246833	-9.377971	-2.350882	 35.473990	 5.254307
-0.728550	-0.006444	 1.265644	-176.838000	-3.815094	 1.434205	-14.504280	-2.937017	-178.268100	-7.581781	-31.899320	-4.808642	 46.059790	 85.471690	-55.736390	-2.385833	 28.452760	 0.000004	 19.938900	 3.099852	 171.340700	 3.219313	-20.927570	 1.229920	-41.054230	 76.903370	 48.083520	 2.384659	 28.388700	-0.000001	-17.449760	 5.123392	-2.144174	-10.561630	 0.235408	-7.883348	 9.392667	 1.219242	 9.282744	-91.776180	 78.527380	-180.000000	 27.753110	 74.281400	-42.545450	-12.453880	-2.389472	-21.845590	-3.500226	-36.729390	-3.049816	-4.130354	 21.526190	 0.991307	-5.167926	 0.731697	 3.519349	-1.378229	 35.397820	-2.634230	-7.568588	-0.115763	 3.923382	-1.488351	-14.333630	-4.831040	 89.782140	 78.203870	 180.000000	-69.464090	 54.575490	 58.301200	 9.958660	-6.661847	 73.735960	-16.228080	-2.515834	 43.735360	 5.716295	 19.173350	-3.684826	 5.027458	 0.246833	-9.377971	-2.350882	 35.473990	 5.254307
-0.729960	-0.006565	 1.267470	-177.153700	-3.360676	 1.070628	-13.601760	-3.357080	-177.969100	-7.685875	-31.484590	-4.808222	 41.915260	 85.017360	-51.432700	-2.385833	 28.452760	 0.000004	 20.651720	 2.268423	 171.952500	 3.176342	-21.737340	 1.259281	-41.632420	 77.631340	 48.671410	 2.384659	 28.388700	-0.000001	-17.548360	 5.565141	-1.572985	-10.871310	-1.868255	-8.680209	 9.381816	 2.951740	 9.419619	-91.776120	 78.527430	 180.000000	 26.403830	 73.476310	-40.820030	-12.722360	-2.212818	-21.255060	-3.519216	-37.219970	-3.024390	-4.130354	 21.526190	 0.991307	-5.167926	 0.731697	 3.519349	-1.378229	 35.397820	-2.634230	-7.113667	-0.360245	 3.633886	-1.188311	-13.224350	-4.811973	 89.782140	 78.203900	 180.000000	-69.969830	 53.158100	 56.918670	 10.657170	-7.593294	 80.698040	-16.704520	 0.589930	 40.969860	 5.716295	 19.173350	-3.684826	 5.027458	 0.246833	-9.377971	-2.350882	 35.473990	 5.254307
-0.731661	-0.007628	 1.270132	-177.756400	-3.123119	 0.913743	-12.748320	-3.555911	-177.669700	-7.964891	-30.571470	-4.827763	 43.197320	 84.650970	-52.405620	-2.385833	 28.452760	 0.000004	 21.627860	 1.349023	 172.446400	 3.031749	-22.092730	 1.224297	-38.803320	 77.682850	 45.967120	 2.384659	 28.388700	-0.000001	-17.026370	 6.682889	-1.062690	-10.887070	-4.115199	-9.193824	 9.288695	 4.961183	 9.213504	-91.776180	 78.527420	-180.000000	 25.069500	 73.077270	-29.174100	-14.179100	-3.616718	-40.581810	-3.368134	-37.684040	-3.000233	-4.130354	 21.526190	 0.991307	-5.167926	 0.731697	 3.519349	-1.378229	 35.397820	-2.634230	-6.730341	-0.586711	 3.265202	-0.943493	-11.783160	-4.493742	 89.782090	 78.203870	-180.000000	-63.978990	 52.867330	 47.847680	 12.484490	-8.465038	 93.984180	-13.729690	 7.404152	 34.835760	 5.716295	 19.173350	-3.684826	 5.027458	 0.246833	-9.377971	-2.350882	 35.473990	 5.254307
-0.732607	-0.010753	 1.271937	-178.210600	-2.767689	 1.338089	-12.354180	-4.076480	-178.197000	-8.297232	-30.881530	-5.045863	 53.264950	 85.482640	-62.177640	-2.385833	 28.452760	 0.000004	 22.407320	 0.564379	 172.233300	 2.816754	-22.017860	 1.139540	-35.746770	 77.396740	 43.073980	 2.384659	 28.388700	-0.000001	-16.995060	 7.970714	-1.389105	-11.225680	-6.385698	-9.961628	 9.204178	 7.147356	 9.245257	-91.776240	 78.527330	-180.000000	 26.092150	 72.220380	-30.157020	-14.518790	-3.341290	-40.730800	-3.170949	-38.122760	-2.974399	-4.130354	 21.526190	 0.991307	-5.167926	 0.731697	 3.519349	-1.378229	 35.397820	-2.634230	-6.278109	-0.720578	 2.650663	-0.664923	-10.353030	-3.610899	 89.782120	 78.203900	 180.000000	-63.680960	 51.382150	 47.723530	 13.211900	-9.099980	 98.257630	-13.908000	 9.791160	 32.102970	 5.716295	 19.173350	-3.684826	 5.027458	 0.246833	-9.377971	-2.350882	 35.473990	 5.254307
-0.733647	-0.016429	 1.273787	-178.327100	-2.064659	 1.507889	-11.876830	-5.055611	-178.734800	-8.502024	-31.032430	-5.175840	 49.839710	 85.813250	-58.463670	-2.385833	 28.452760	 0.000004	 22.854810	-0.811840	 172.378900	 2.687607	-22.558700	 1.116430	-34.954400	 77.657040	 42.360520	 2.384659	 28.388700	-0.000001	-17.408510	 9.299307	-1.525863	-11.688320	-8.832977	-10.925840	 9.167788	 9.413989	 9.385326	-91.776170	 78.527380	 180.000000	 28.155860	 71.358680	-32.590130	-15.040990	-2.896577	-40.802830	-3.147981	-38.760930	-2.935897	-4.130354	 21.526190	 0.991307	-5.167926	 0.731697	 3.519349	-1.378229	 35.397820	-2.634230	-5.763741	-0.222644	 2.159388	-0.335729	-9.568441	-3.119857	 89.782120	 78.203890	 180.000000	-64.050050	 49.351620	 48.879040	 13.725810	-9.493379	 100.956100	-14.383210	 11.335250	 30.145650	 5.716295	 19.173350	-3.684826	 5.027458	 0.246833	-9.377971	-2.350882	 35.473990	 5.254307
